<svg id='Nintendo Switch Logo' fill="white" viewBox='0 0 24 24' xmlns='http://www.w3.org/2000/svg' xmlns:xlink='http://www.w3.org/1999/xlink'>
<g transform="matrix(0.3 0 0 0.3 12 12)" >
<path style="stroke: none; stroke-width: 1; stroke-dasharray: none; stroke-linecap: butt; stroke-dashoffset: 0; stroke-linejoin: miter; stroke-miterlimit: 4; opacity: 1;" transform=" translate(-49.5, -50)" d="M 33.824219 17 C 28.349 17 24.280433 18.642251 21.681641 21.773438 C 19.082848 24.904623 18 29.364875 18 34.841797 L 18 66.841797 C 18 76.182441 24.547402 83 33.824219 83 L 48 83 L 48 17 L 33.824219 17 z M 52.023438 17 L 52.023438 83 L 65.71875 83 C 74.690654 83 81 76.165941 81 66.841797 L 81 34.841797 C 81 29.36974 79.962156 24.922138 77.457031 21.789062 C 74.951906 18.655987 71.007855 17 65.71875 17 L 52.023438 17 z M 33.824219 19 L 46 19 L 46 81 L 33.824219 81 C 25.497035 81 20 75.279153 20 66.841797 L 20 34.841797 C 20 29.630719 21.047995 25.668595 23.220703 23.050781 C 25.393411 20.432968 28.737437 19 33.824219 19 z M 54.023438 19 L 65.71875 19 C 70.604645 19 73.802906 20.421185 75.894531 23.037109 C 77.986156 25.653034 79 29.625853 79 34.841797 L 79 66.841797 C 79 75.295652 73.704846 81 65.71875 81 L 54.023438 81 L 54.023438 19 z M 62.675781 21.017578 C 62.65883183959696 21.017367903866496 62.64188295851673 21.018019745396785 62.625 21.019531 L 61.03125 21.019531 C 60.85093204171122 21.01698085522726 60.683209317714194 21.11171864808467 60.59230613925674 21.267467424857166 C 60.50140296079929 21.423216201629664 60.50140296079929 21.615845798370337 60.59230613925674 21.771594575142835 C 60.683209317714194 21.927343351915336 60.85093204171122 22.02208114477274 61.03125 22.019531 L 62.693359 22.019531 C 67.903878 22.008241 71.218637 23.035053 73.234375 25.220703 C 75.252548 27.408993 76.066196 30.878002 76.005859 35.945312 C 76.00233299009342 36.12487118012454 76.09536857017368 36.292530881863144 76.2495961482793 36.38455145600031 C 76.40382372638491 36.47657203013747 76.59555360477435 36.47881891258231 76.75189530907632 36.39043789986569 C 76.90823701337828 36.30205688714906 77.00517611138288 36.136623498662935 77.005859 35.957031 C 77.067519 30.778343 76.25303 27.017679 73.970703 24.542969 C 71.756088 22.141678 68.213546 21.089689 63.115234 21.041016 C 63.06649078043434 21.02623685378673 63.015775656746335 21.0189915952427 62.964844 21.019531 L 62.712891 21.019531 C 62.699501 21.019553 62.689201 21.017578 62.675781 21.017578 z M 56.511719 21.019531 C 56.33140104171122 21.01698085522726 56.163678317714194 21.11171864808467 56.07277513925674 21.267467424857166 C 55.98187196079929 21.423216201629664 55.98187196079929 21.615845798370337 56.07277513925674 21.771594575142835 C 56.163678317714194 21.927343351915336 56.33140104171122 22.02208114477274 56.511719 22.019531 L 58.558594 22.019531 C 58.73891195828878 22.02208114477274 58.906634682285805 21.927343351915336 58.99753786074326 21.771594575142835 C 59.08844103920071 21.615845798370337 59.08844103920071 21.423216201629664 58.99753786074326 21.267467424857166 C 58.906634682285805 21.11171864808467 58.73891195828878 21.01698085522726 58.558594 21.019531 L 56.511719 21.019531 z M 34 28 C 30.692212 28 28 30.692214 28 34 C 28 37.307786 30.692212 40 34 40 C 37.307788 40 40 37.307786 40 34 C 40 30.692214 37.307788 28 34 28 z M 34 29 C 36.767348 29 39 31.232654 39 34 C 39 36.767346 36.767348 39 34 39 C 31.232652 39 29 36.767346 29 34 C 29 31.232654 31.232652 29 34 29 z M 66 50 C 62.692212 50 60 52.692214 60 56 C 60 59.307786 62.692212 62 66 62 C 69.307788 62 72 59.307786 72 56 C 72 52.692214 69.307788 50 66 50 z M 66 51 C 68.767348 51 71 53.232654 71 56 C 71 58.767346 68.767348 61 66 61 C 63.232652 61 61 58.767346 61 56 C 61 53.232654 63.232652 51 66 51 z M 22.509766 63.541016 C 22.377156813218715 63.54308496181516 22.25080119117585 63.59774948251605 22.1584974123194 63.69298334955192 C 22.06619363346295 63.788217216587796 22.01550319137388 63.91621890456929 22.017578 64.048828 C 22.018085 69.174179 23.096672 72.949568 25.609375 75.427734 C 28.061728 77.846381 31.808286 78.942313 36.970703 78.974609 C 36.99848350207436 78.97891969110447 37.026578047014276 78.98087997012273 37.054688 78.980469 L 37.259766 78.980469 C 37.28867 78.980422 37.314758 78.982534 37.34375 78.982422 C 37.360699160403044 78.9826320961335 37.37764804148327 78.98198025460322 37.394531 78.980469 L 38.986328 78.980469 C 39.16664595828878 78.98301914477274 39.334368682285806 78.88828135191534 39.42527186074326 78.73253257514284 C 39.51617503920071 78.57678379837033 39.51617503920071 78.38415420162967 39.42527186074326 78.22840542485716 C 39.334368682285806 78.07265664808466 39.16664595828878 77.97791885522726 38.986328 77.980469 L 37.253906 77.980469 C 32.079186 77.988267 28.550477 76.92594 26.310547 74.716797 C 24.05775 72.494964 23.018071 69.034477 23.017578 64.048828 C 23.019695288398538 63.91350991098846 22.966873996416247 63.78311210438155 22.871177946017344 63.68741605398265 C 22.775481895618444 63.59172000358375 22.64508408901154 63.53889871160146 22.509766 63.541016 z M 41.460938 77.980469 C 41.28062004171122 77.97791885522726 41.11289731771419 78.07265664808466 41.02199413925674 78.22840542485716 C 40.93109096079929 78.38415420162967 40.93109096079929 78.57678379837033 41.02199413925674 78.73253257514284 C 41.11289731771419 78.88828135191534 41.28062004171122 78.98301914477274 41.460938 78.980469 L 43.505859 78.980469 C 43.68617695828878 78.98301914477274 43.85389968228581 78.88828135191534 43.94480286074326 78.73253257514284 C 44.03570603920071 78.57678379837033 44.03570603920071 78.38415420162967 43.94480286074326 78.22840542485716 C 43.85389968228581 78.07265664808466 43.68617695828878 77.97791885522726 43.505859 77.980469 L 41.460938 77.980469 z" stroke-linecap="round" />
</g>
</svg>